# xmcd
#
# Track frame offsets:
#	150
#	13111
#	28767
#	42962
#	56232
#	71992
#	83495
#	100801
#	111885
#	125806
#	146047
#	172089
#	183218
#	197150
#	214619
#	228016
#	241909
#	258433
#	272073
#	285725
#	300337
#	313785
#
# Disc length: 4365 seconds
#
# Revision: 0
# Processed by: cddbd v1.4PL0 Copyright (c) Steve Scherf et al.
# Submitted via: EasyCDDAExtractor 4.5.0.2
#
DISCID=42110b16
DTITLE=Alex3ou Xaris - Ta Laika ths xaroulas
DYEAR=1900
DGENRE=
TTITLE0=H roza h naziara
TTITLE1=Otan pinei mia gynaika
TTITLE2=Zhleia mou
TTITLE3=Oi magkes den yparxoun pia
TTITLE4=An pe8ainei mia agaph
TTITLE5=Teli Teli Teli
TTITLE6=3hmerwnei
TTITLE7=Thn ogdoh mera
TTITLE8=H dia8hkh
TTITLE9=Twra ki egw 8a zhsw
TTITLE10=H zwh mou kyklous kanei
TTITLE11=Gyftisa twn eviza3e
TTITLE12=Mia zwh mesa stous dromous
TTITLE13=Gkarsona
TTITLE14=Oyzo otan pineis
TTITLE15=O kai3hs
TTITLE16=O fantaros
TTITLE17=Oles tou kosmou oi kuriakes
TTITLE18=H nyxta 8elei erwta
TTITLE19=Mia einai h ousia
TTITLE20=Mantaliw
TTITLE21=Opoia kai nasai
EXTD=KLcanislupus©
EXTT0=KLcanislupus©
EXTT1=
EXTT2=
EXTT3=
EXTT4=
EXTT5=
EXTT6=
EXTT7=
EXTT8=
EXTT9=
EXTT10=
EXTT11=
EXTT12=
EXTT13=
EXTT14=
EXTT15=
EXTT16=
EXTT17=
EXTT18=
EXTT19=
EXTT20=
EXTT21=
PLAYORDER=
